<?xml version="1.0" standalone="no"?>
<!DOCTYPE svg PUBLIC "-//W3C//DTD SVG 20010904//EN"
 "http://www.w3.org/TR/2001/REC-SVG-20010904/DTD/svg10.dtd">
<svg version="1.0" xmlns="http://www.w3.org/2000/svg"
 width="400.000000pt" height="400.000000pt" viewBox="0 0 400.000000 400.000000"
 preserveAspectRatio="xMidYMid meet">
<metadata>
Created by potrace 1.14, written by Peter Selinger 2001-2017
</metadata>
<g transform="translate(0.000000,400.000000) scale(0.100000,-0.100000)"
fill="#000000" stroke="none">
<path d="M362 3123 c-41 -37 -97 -151 -123 -249 -30 -111 -38 -440 -15 -611
18 -135 18 -131 17 -278 -1 -96 3 -125 31 -225 40 -141 39 -187 -1 -309 -34
-102 -38 -157 -19 -257 14 -78 2 -140 -47 -243 -68 -142 -114 -314 -122 -461
-5 -99 -3 -127 16 -198 12 -46 32 -105 45 -130 13 -26 31 -73 41 -104 l17 -56
1679 0 1679 0 6 26 c3 15 14 51 26 80 24 62 21 139 -8 238 -20 70 -15 215 11
284 9 25 25 83 35 130 16 77 17 106 9 295 -18 381 -30 311 135 770 l47 130 5
210 c3 116 1 272 -4 348 -9 129 -12 143 -46 213 -62 125 -101 134 -229 56 -47
-29 -88 -52 -91 -52 -14 0 -182 -103 -225 -139 -24 -20 -69 -62 -100 -95 -98
-102 -214 -212 -291 -277 -41 -34 -106 -91 -143 -126 -119 -111 -151 -122
-241 -79 -151 72 -220 100 -320 131 -125 39 -147 42 -301 50 -133 6 -216 -6
-309 -46 -39 -16 -81 -29 -95 -27 -18 2 -44 27 -91 89 -36 47 -80 101 -98 120
-51 52 -205 262 -274 372 -64 105 -255 315 -312 344 -42 22 -216 94 -242 100
-15 3 -32 -4 -52 -24z m894 -1837 c64 -32 157 -114 150 -133 -3 -8 -2 -12 2
-9 15 9 44 -66 49 -124 5 -51 3 -57 -28 -93 -62 -69 -194 -96 -314 -63 -85 22
-161 68 -148 89 3 6 1 7 -6 3 -17 -11 -51 70 -51 121 0 57 34 144 68 174 68
59 195 75 278 35z m1511 -110 c136 -43 205 -215 138 -342 -29 -55 -42 -66
-112 -99 -97 -47 -287 -27 -391 40 -79 52 -82 55 -82 90 0 83 64 223 122 267
77 59 107 69 193 64 44 -2 104 -11 132 -20z"/>
<path d="M1202 1244 c-38 -58 -52 -111 -52 -195 0 -69 2 -79 18 -79 30 0 92
140 92 210 0 55 -11 100 -24 100 -6 0 -22 -16 -34 -36z"/>
<path d="M2598 1113 c-22 -55 -20 -153 5 -223 12 -36 27 -64 32 -63 17 3 44
89 44 143 0 58 -35 160 -57 168 -6 2 -17 -9 -24 -25z"/>
</g>
</svg>
